<?xml version="1.0" encoding="utf-8"?>
<!-- Generator: Adobe Illustrator 16.0.0, SVG Export Plug-In . SVG Version: 6.00 Build 0)  -->
<!DOCTYPE svg PUBLIC "-//W3C//DTD SVG 1.1//EN" "http://www.w3.org/Graphics/SVG/1.1/DTD/svg11.dtd">
<svg version="1.1" id="图层_1" xmlns="http://www.w3.org/2000/svg" xmlns:xlink="http://www.w3.org/1999/xlink" x="0px" y="0px"
	 width="60px" height="60px" viewBox="0 0 60 60" enable-background="new 0 0 60 60" xml:space="preserve">
<path display="none" d="M34.958,6.779c0-2.688-2.216-4.88-4.953-4.88c-2.73,0-4.954,2.182-4.954,4.88
	c0,0.274,0.022,0.543,0.069,0.807c-6.837,2.349-12.449,9.556-12.449,18.084v6.713c0,0-0.603,9.668-3.014,9.754
	c-1.438,0-2.542,1.092-2.542,2.441c0,1.352,1.109,2.439,2.475,2.439h40.819c1.377,0,2.476-1.092,2.476-2.439
	c0-1.355-1.109-2.441-2.476-2.441c-2.474,0-3.074-9.686-3.074-9.686V25.67c0-8.54-5.247-15.753-12.45-18.095
	C34.938,7.317,34.958,7.047,34.958,6.779L34.958,6.779L34.958,6.779z M37.438,49.452c-0.005,4.047-3.301,7.32-7.427,7.32
	c-4.097,0-7.422-3.262-7.428-7.32H37.438L37.438,49.452z"/>
<path d="M30,3.131c-15.148,0-27.432,12.284-27.432,27.433c0,15.147,12.284,27.431,27.432,27.431
	c15.147,0,27.432-12.283,27.432-27.431C57.432,15.415,45.147,3.131,30,3.131L30,3.131L30,3.131z M43.367,40.055
	c1.07,1.072,1.07,2.81,0,3.882c-0.532,0.538-1.236,0.802-1.94,0.802c-0.703,0-1.401-0.27-1.939-0.802L30,34.443l-9.493,9.486
	c-0.532,0.539-1.236,0.803-1.94,0.803c-0.704,0-1.401-0.271-1.94-0.803c-1.072-1.07-1.072-2.809,0-3.881l9.492-9.485l-9.485-9.493
	c-1.072-1.071-1.072-2.809,0-3.88c1.071-1.072,2.809-1.072,3.88,0L30,26.682l9.492-9.492c1.072-1.072,2.809-1.072,3.881,0
	c1.07,1.071,1.07,2.809,0,3.88l-9.493,9.493L43.367,40.055L43.367,40.055z"/>
</svg>
