<?xml version="1.0" encoding="utf-8"?>
<!-- Generator: Adobe Illustrator 16.0.0, SVG Export Plug-In . SVG Version: 6.00 Build 0)  -->
<!DOCTYPE svg PUBLIC "-//W3C//DTD SVG 1.1//EN" "http://www.w3.org/Graphics/SVG/1.1/DTD/svg11.dtd">
<svg version="1.1" id="图层_1" xmlns="http://www.w3.org/2000/svg" xmlns:xlink="http://www.w3.org/1999/xlink" x="0px" y="0px"
	 width="60px" height="60px" viewBox="0 0 60 60" enable-background="new 0 0 60 60" xml:space="preserve">
<path d="M34.958,6.779c0-2.688-2.216-4.88-4.953-4.88c-2.73,0-4.954,2.182-4.954,4.88c0,0.274,0.022,0.543,0.069,0.807
	c-6.837,2.349-12.449,9.556-12.449,18.084v6.713c0,0-0.603,9.668-3.014,9.754c-1.438,0-2.542,1.092-2.542,2.441
	c0,1.352,1.109,2.439,2.475,2.439h40.819c1.377,0,2.476-1.092,2.476-2.439c0-1.355-1.109-2.441-2.476-2.441
	c-2.474,0-3.074-9.686-3.074-9.686V25.67c0-8.54-5.247-15.753-12.45-18.095C34.938,7.317,34.958,7.047,34.958,6.779L34.958,6.779
	L34.958,6.779z M37.438,49.452c-0.005,4.047-3.301,7.32-7.427,7.32c-4.097,0-7.422-3.262-7.428-7.32H37.438L37.438,49.452z"/>
</svg>
