<?xml version="1.0" encoding="utf-8"?>
<!-- Generator: Adobe Illustrator 16.0.0, SVG Export Plug-In . SVG Version: 6.00 Build 0)  -->
<!DOCTYPE svg PUBLIC "-//W3C//DTD SVG 1.1//EN" "http://www.w3.org/Graphics/SVG/1.1/DTD/svg11.dtd">
<svg version="1.1" id="图层_1" xmlns="http://www.w3.org/2000/svg" xmlns:xlink="http://www.w3.org/1999/xlink" x="0px" y="0px"
	 width="60px" height="60px" viewBox="0 0 60 60" enable-background="new 0 0 60 60" xml:space="preserve">
<g>
	<path d="M21.481,50.924c-5.609-2.239-10.009-6.522-12.39-12.061c-2.38-5.541-2.458-11.675-0.219-17.271
		c2.24-5.597,6.535-9.991,12.083-12.368C26.508,6.851,32.653,6.77,38.26,9.005c0.391,0.153,0.79,0.226,1.183,0.226
		c1.258,0,2.454-0.754,2.95-1.995c0.648-1.625-0.144-3.472-1.772-4.124c-3.63-1.443-7.436-2.143-11.316-2.069
		C25.552,1.121,21.903,1.91,18.449,3.39c-3.453,1.481-6.544,3.58-9.176,6.239c-2.729,2.757-4.85,5.989-6.297,9.609
		c-1.451,3.62-2.151,7.422-2.081,11.301c0.074,3.743,0.866,7.384,2.351,10.832s3.587,6.532,6.25,9.161
		c2.761,2.722,6.003,4.835,9.631,6.283c0.385,0.15,0.785,0.226,1.177,0.226c1.267,0,2.455-0.757,2.955-1.996
		C23.902,53.421,23.11,51.575,21.481,50.924z"/>
	<path d="M46.339,14.485c0.872,0.921,2.294,1.043,3.291,0.27l1.149-0.881c1.151-0.885,1.288-2.554,0.301-3.617
		c-0.092-0.093-0.179-0.189-0.271-0.281c-0.999-1.045-2.687-1.004-3.634,0.084l-0.949,1.092c-0.825,0.947-0.793,2.38,0.082,3.294
		C46.315,14.459,46.327,14.473,46.339,14.485z"/>
	<path d="M29.285,52H29.24c-0.889,0-1.611,1.012-1.611,1.904l-0.007,3.268c0,0.918,0.744,1.828,1.663,1.828h0.192
		c0.924,0,1.65-0.846,1.612-1.768l-0.147-3.368C30.902,52.982,30.169,52,29.285,52z"/>
	<path d="M50.145,19.948c0.007,0.012,0.01,0.03,0.017,0.041c0.56,1.136,1.89,1.673,3.082,1.221l1.349-0.507
		c1.359-0.506,1.978-2.065,1.345-3.365l-0.169-0.348c-0.656-1.292-2.273-1.751-3.503-0.985l-1.225,0.759
		C49.966,17.442,49.585,18.812,50.145,19.948z"/>
	<path d="M53.985,23.546c-1.225,0.329-1.991,1.529-1.784,2.776c0,0.019,0.005,0.03,0.005,0.048c0.202,1.252,1.31,2.144,2.576,2.058
		l1.443-0.084c1.448-0.089,2.504-1.396,2.275-2.828c-0.021-0.127-0.04-0.26-0.061-0.385c-0.242-1.426-1.66-2.337-3.057-1.958
		L53.985,23.546z"/>
	<path d="M56.252,30.941l-1.443-0.052c-1.268-0.044-2.355,0.879-2.525,2.125c0,0.019-0.007,0.03-0.007,0.05
		c-0.174,1.25,0.626,2.431,1.854,2.731l1.411,0.341c1.405,0.341,2.802-0.6,3.001-2.029c0.02-0.134,0.036-0.258,0.052-0.393
		C58.781,32.279,57.695,30.993,56.252,30.941z"/>
	<path d="M49.987,44.697c-1.021-0.742-2.436-0.588-3.286,0.353c-0.012,0.012-0.015,0.021-0.031,0.033
		c-0.846,0.934-0.853,2.364,0,3.298l0.979,1.067c0.978,1.064,2.658,1.064,3.624,0.007c0.092-0.101,0.177-0.197,0.264-0.296
		c0.966-1.084,0.787-2.755-0.383-3.608L49.987,44.697z"/>
	<path d="M38.25,53.421c-0.425-1.194-1.692-1.857-2.922-1.552c-0.019,0.007-0.028,0.007-0.047,0.01
		c-1.229,0.301-2.033,1.485-1.854,2.733l0.212,1.432c0.207,1.43,1.598,2.369,3.009,2.028c0.124-0.03,0.251-0.059,0.381-0.092
		c1.403-0.359,2.19-1.84,1.706-3.199L38.25,53.421z"/>
	<path d="M54.73,38.598l-1.34-0.466c-1.201-0.416-2.524,0.148-3.051,1.303c-0.005,0.019-0.015,0.032-0.021,0.052
		c-0.526,1.146-0.096,2.494,0.987,3.136l1.229,0.722c1.255,0.742,2.875,0.23,3.483-1.096c0.047-0.104,0.099-0.216,0.144-0.319
		C56.76,40.614,56.097,39.072,54.73,38.598z"/>
	<path d="M43.744,43.802c1.243-1.238,1.215-3.241-0.025-4.482L33,28.646V14.858c0-1.755-1.744-3.172-3.498-3.172
		c-1.758,0-3.502,1.417-3.502,3.172v15.101c0,0.414,0.432,0.826,0.593,1.214c0.164,0.393,0.573,0.744,0.87,1.039l11.7,11.59
		c0.618,0.618,1.476,0.929,2.291,0.929C42.267,44.73,43.126,44.42,43.744,43.802z"/>
	<path d="M44.773,49.938c-0.757-1.016-2.163-1.286-3.249-0.635c-0.014,0.007-0.028,0.019-0.04,0.023
		c-1.083,0.65-1.514,2.012-0.968,3.161l0.618,1.303c0.618,1.307,2.229,1.798,3.465,1.067c0.112-0.071,0.226-0.135,0.336-0.205
		c1.236-0.747,1.565-2.396,0.698-3.554L44.773,49.938z"/>
</g>
</svg>
