<?xml version="1.0" encoding="utf-8"?>
<!-- Generator: Adobe Illustrator 16.0.0, SVG Export Plug-In . SVG Version: 6.00 Build 0)  -->
<!DOCTYPE svg PUBLIC "-//W3C//DTD SVG 1.1//EN" "http://www.w3.org/Graphics/SVG/1.1/DTD/svg11.dtd">
<svg version="1.1" xmlns="http://www.w3.org/2000/svg" xmlns:xlink="http://www.w3.org/1999/xlink" x="0px" y="0px" width="60px"
	 height="60px" viewBox="0 0 60 60" enable-background="new 0 0 60 60" xml:space="preserve">
<g id="图层_1" display="none">
	<path display="inline" d="M34.016,4.114c-15.148,0-27.432,12.284-27.432,27.433c0,15.146,12.284,27.43,27.432,27.43
		c15.147,0,27.432-12.283,27.432-27.43C61.447,16.397,49.163,4.114,34.016,4.114L34.016,4.114L34.016,4.114z M47.383,41.037
		c1.07,1.072,1.07,2.811,0,3.883c-0.532,0.537-1.236,0.801-1.94,0.801c-0.703,0-1.401-0.27-1.939-0.801l-9.487-9.494l-9.493,9.486
		c-0.532,0.539-1.236,0.803-1.94,0.803c-0.704,0-1.401-0.27-1.94-0.803c-1.072-1.07-1.072-2.809,0-3.881l9.492-9.484l-9.485-9.494
		c-1.072-1.071-1.072-2.809,0-3.88c1.071-1.072,2.809-1.072,3.88,0l9.486,9.492l9.492-9.492c1.072-1.072,2.809-1.072,3.881,0
		c1.07,1.071,1.07,2.809,0,3.88l-9.493,9.494L47.383,41.037L47.383,41.037z"/>
</g>
<g id="图层_3">
	<path d="M57.559,49.456L32.857,9.075c-1.064-1.738-3.639-1.738-4.702,0L3.453,49.456c-1.094,1.788,0.222,4.063,2.352,4.063h49.404
		C57.337,53.52,58.652,51.244,57.559,49.456L57.559,49.456L57.559,49.456z M30.506,46.97c-1.486,0-2.695-1.185-2.695-2.641
		s1.209-2.641,2.695-2.641c1.487,0,2.696,1.185,2.696,2.641S31.993,46.97,30.506,46.97L30.506,46.97L30.506,46.97z M33.262,36.08
		c0,1.487-1.236,2.698-2.756,2.698c-1.519,0-2.755-1.211-2.755-2.698V21.701c0-1.487,1.236-2.698,2.755-2.698
		c1.52,0,2.756,1.211,2.756,2.698V36.08L33.262,36.08z"/>
</g>
<g id="图层_2" display="none">
	<path display="inline" d="M34.958,6.779c0-2.688-2.216-4.88-4.953-4.88c-2.73,0-4.954,2.182-4.954,4.88
		c0,0.274,0.022,0.543,0.069,0.807c-6.837,2.349-12.449,9.556-12.449,18.084v6.713c0,0-0.603,9.668-3.014,9.754
		c-1.438,0-2.542,1.092-2.542,2.441c0,1.352,1.109,2.439,2.475,2.439h40.819c1.377,0,2.476-1.092,2.476-2.439
		c0-1.355-1.109-2.441-2.476-2.441c-2.474,0-3.074-9.686-3.074-9.686V25.67c0-8.54-5.247-15.753-12.45-18.095
		C34.938,7.317,34.958,7.047,34.958,6.779L34.958,6.779L34.958,6.779z M37.438,49.452c-0.005,4.047-3.301,7.32-7.427,7.32
		c-4.097,0-7.422-3.262-7.428-7.32H37.438L37.438,49.452z"/>
</g>
</svg>
